# xmcd
#
# Track frame offsets:
#	150
#	20060
#	36121
#	57461
#	77442
#	99699
#	130511
#	156254
#	171334
#	186973
#	213315
#
# Disc length: 3193 seconds
#
# Revision: 0
# Processed by: cddbd v1.5.2PL0 Copyright (c) Steve Scherf et al.
# Submitted via: dBpowerAMP V4.0
#
DISCID=920c770b
DTITLE=Mick Martin and The Blues Rockers - Way Down South
DYEAR=2006
DGENRE=Blues
TTITLE0=Way Down South
TTITLE1=I love My Baby
TTITLE2=Another Day Without You
TTITLE3=Doin Something To Me
TTITLE4=Pick Up, Baby
TTITLE5=Heartbreaker
TTITLE6=It's Hard Going Up
TTITLE7=I Don't Care About Nothin'
TTITLE8=Candy Girl
TTITLE9=Forever Ended Today
TTITLE10=You Make Me Happy
EXTD=
EXTT0=
EXTT1=
EXTT2=
EXTT3=
EXTT4=
EXTT5=
EXTT6=
EXTT7=
EXTT8=
EXTT9=
EXTT10=
PLAYORDER=
